<svg xmlns="http://www.w3.org/2000/svg" viewBox="0 0 1200 720" role="img" aria-labelledby="title desc">
  <title id="title">Civic issue reporting scene</title>
  <desc id="desc">A stylized city street dashboard scene with civic reports, route lines, and issue markers.</desc>
  <defs>
    <linearGradient id="sky" x1="0" x2="1" y1="0" y2="1">
      <stop offset="0" stop-color="#dff4ee"/>
      <stop offset="0.56" stop-color="#f5f7f4"/>
      <stop offset="1" stop-color="#f6ecd9"/>
    </linearGradient>
    <linearGradient id="road" x1="0" x2="1" y1="0" y2="0">
      <stop offset="0" stop-color="#1a2a2a"/>
      <stop offset="1" stop-color="#2d3d43"/>
    </linearGradient>
    <filter id="softShadow" x="-20%" y="-20%" width="140%" height="140%">
      <feDropShadow dx="0" dy="18" stdDeviation="22" flood-color="#17211d" flood-opacity="0.18"/>
    </filter>
  </defs>
  <rect width="1200" height="720" fill="url(#sky)"/>
  <path d="M0 520 C180 460 284 470 430 510 C620 562 798 548 1200 440 L1200 720 L0 720 Z" fill="url(#road)"/>
  <path d="M80 602 C250 568 365 584 500 620 C650 660 820 640 1088 558" fill="none" stroke="#d8f06d" stroke-width="12" stroke-linecap="round" stroke-dasharray="42 32" opacity="0.86"/>
  <g opacity="0.88">
    <rect x="82" y="242" width="120" height="220" rx="6" fill="#bfd5d0"/>
    <rect x="124" y="190" width="150" height="272" rx="6" fill="#9abbb5"/>
    <rect x="292" y="270" width="104" height="192" rx="6" fill="#d8cba8"/>
    <rect x="430" y="220" width="146" height="242" rx="6" fill="#b3ccc7"/>
    <rect x="885" y="214" width="164" height="245" rx="6" fill="#a9c6c1"/>
    <rect x="1040" y="282" width="92" height="177" rx="6" fill="#d8cba8"/>
  </g>
  <g fill="#f8fff9" opacity="0.76">
    <rect x="106" y="272" width="22" height="28" rx="3"/>
    <rect x="146" y="272" width="22" height="28" rx="3"/>
    <rect x="156" y="226" width="24" height="30" rx="3"/>
    <rect x="206" y="226" width="24" height="30" rx="3"/>
    <rect x="922" y="252" width="26" height="32" rx="3"/>
    <rect x="972" y="252" width="26" height="32" rx="3"/>
  </g>
  <g filter="url(#softShadow)">
    <rect x="690" y="92" width="330" height="278" rx="20" fill="#ffffff"/>
    <rect x="720" y="128" width="118" height="16" rx="8" fill="#19735a"/>
    <rect x="720" y="166" width="252" height="14" rx="7" fill="#dce4de"/>
    <rect x="720" y="196" width="210" height="14" rx="7" fill="#dce4de"/>
    <rect x="720" y="240" width="86" height="68" rx="12" fill="#fff4d9"/>
    <rect x="830" y="240" width="86" height="68" rx="12" fill="#e4f2ff"/>
    <rect x="720" y="326" width="252" height="10" rx="5" fill="#dce4de"/>
  </g>
  <g filter="url(#softShadow)">
    <circle cx="306" cy="535" r="58" fill="#c13d2a"/>
    <path d="M292 522 h44 l-8 36 h-44 z" fill="#fff"/>
    <circle cx="324" cy="548" r="5" fill="#c13d2a"/>
    <circle cx="292" cy="548" r="5" fill="#c13d2a"/>
  </g>
  <g filter="url(#softShadow)">
    <circle cx="774" cy="474" r="54" fill="#19735a"/>
    <path d="M774 438 l12 24 26 4-19 18 5 26-24-13-24 13 5-26-19-18 26-4z" fill="#d8f06d"/>
  </g>
  <g filter="url(#softShadow)">
    <circle cx="980" cy="562" r="50" fill="#2666b8"/>
    <path d="M956 560 h48 M980 536 v48" stroke="#fff" stroke-width="12" stroke-linecap="round"/>
  </g>
</svg>
